<mxfile host="65bd71144e">
    <diagram id="DcN9NVWDA6H0a6BX33h3" name="Página-1">
        <mxGraphModel dx="650" dy="232" grid="1" gridSize="10" guides="1" tooltips="1" connect="1" arrows="1" fold="1" page="1" pageScale="1" pageWidth="827" pageHeight="1169" math="0" shadow="0">
            <root>
                <mxCell id="0"/>
                <mxCell id="1" parent="0"/>
                <mxCell id="2" value="&lt;p class=&quot;MsoNormal&quot;&gt;&lt;span style=&quot;background-color: rgb(255 , 204 , 255)&quot;&gt;&lt;font color=&quot;#000000&quot;&gt;Hacer el diagrama de flujo y el programa en Python que lea&lt;br&gt;un numero n entero y positivo de cualquier número de dígitos que calcule la&lt;br&gt;suma de sus dígitos y la imprima junto con los números leídos &lt;/font&gt;&lt;/span&gt;&lt;/p&gt;" style="text;whiteSpace=wrap;html=1;align=center;" parent="1" vertex="1">
                    <mxGeometry x="60" y="50" width="520" height="80" as="geometry"/>
                </mxCell>
                <mxCell id="5" value="" style="edgeStyle=none;html=1;" parent="1" source="3" target="4" edge="1">
                    <mxGeometry relative="1" as="geometry"/>
                </mxCell>
                <mxCell id="3" value="INICIO" style="ellipse;whiteSpace=wrap;html=1;fillColor=#d80073;fontColor=#ffffff;strokeColor=#66FFFF;" parent="1" vertex="1">
                    <mxGeometry x="260" y="130" width="120" height="40" as="geometry"/>
                </mxCell>
                <mxCell id="7" value="" style="edgeStyle=none;html=1;" parent="1" source="4" target="6" edge="1">
                    <mxGeometry relative="1" as="geometry"/>
                </mxCell>
                <mxCell id="4" value="numero entero_positivo" style="shape=parallelogram;perimeter=parallelogramPerimeter;whiteSpace=wrap;html=1;fixedSize=1;fillColor=#d80073;strokeColor=#66FFFF;fontColor=#ffffff;" parent="1" vertex="1">
                    <mxGeometry x="260" y="210" width="120" height="60" as="geometry"/>
                </mxCell>
                <mxCell id="9" value="" style="edgeStyle=none;html=1;" parent="1" source="6" target="8" edge="1">
                    <mxGeometry relative="1" as="geometry"/>
                </mxCell>
                <mxCell id="6" value="&lt;div style=&quot;color: rgb(212 , 212 , 212) ; font-family: &amp;#34;consolas&amp;#34; , &amp;#34;courier new&amp;#34; , monospace ; font-size: 14px ; line-height: 19px&quot;&gt;&lt;div style=&quot;line-height: 19px&quot;&gt;sum = 0&lt;/div&gt;&lt;div style=&quot;line-height: 19px&quot;&gt;m = n&amp;nbsp;&lt;/div&gt;&lt;/div&gt;" style="whiteSpace=wrap;html=1;fillColor=#d80073;strokeColor=#66FFFF;fontColor=#ffffff;" parent="1" vertex="1">
                    <mxGeometry x="246.25" y="300" width="147.5" height="50" as="geometry"/>
                </mxCell>
                <mxCell id="11" value="" style="edgeStyle=none;html=1;" parent="1" source="8" target="10" edge="1">
                    <mxGeometry relative="1" as="geometry"/>
                </mxCell>
                <mxCell id="13" value="" style="edgeStyle=none;html=1;" parent="1" source="8" target="12" edge="1">
                    <mxGeometry relative="1" as="geometry">
                        <Array as="points">
                            <mxPoint x="530" y="460"/>
                        </Array>
                    </mxGeometry>
                </mxCell>
                <mxCell id="8" value="n != 0" style="rhombus;whiteSpace=wrap;html=1;fillColor=#d80073;strokeColor=#66FFFF;fontColor=#ffffff;" parent="1" vertex="1">
                    <mxGeometry x="220" y="425" width="200" height="80" as="geometry"/>
                </mxCell>
                <mxCell id="10" value="d = ( n//10)&lt;br&gt;r=n-d*10&lt;br&gt;sum = sum + r&lt;br&gt;n = d" style="whiteSpace=wrap;html=1;fillColor=#d80073;strokeColor=#66FFFF;fontColor=#ffffff;" parent="1" vertex="1">
                    <mxGeometry x="255" y="554.5" width="120" height="60" as="geometry"/>
                </mxCell>
                <mxCell id="15" value="" style="edgeStyle=none;html=1;" parent="1" source="12" target="14" edge="1">
                    <mxGeometry relative="1" as="geometry"/>
                </mxCell>
                <mxCell id="12" value="m, sum" style="shape=document;whiteSpace=wrap;html=1;boundedLbl=1;fillColor=#d80073;strokeColor=#66FFFF;fontColor=#ffffff;" parent="1" vertex="1">
                    <mxGeometry x="470" y="505" width="120" height="80" as="geometry"/>
                </mxCell>
                <mxCell id="14" value="FIN" style="ellipse;whiteSpace=wrap;html=1;fillColor=#d80073;strokeColor=#66FFFF;fontColor=#ffffff;" parent="1" vertex="1">
                    <mxGeometry x="460" y="600" width="120" height="60" as="geometry"/>
                </mxCell>
                <mxCell id="16" value="verdadero" style="text;html=1;align=center;verticalAlign=middle;resizable=0;points=[];autosize=1;strokeColor=none;fillColor=none;" vertex="1" parent="1">
                    <mxGeometry x="235" y="530" width="70" height="20" as="geometry"/>
                </mxCell>
                <mxCell id="17" value="" style="endArrow=none;html=1;exitX=0.5;exitY=1;exitDx=0;exitDy=0;" edge="1" parent="1" source="10">
                    <mxGeometry width="50" height="50" relative="1" as="geometry">
                        <mxPoint x="310" y="500" as="sourcePoint"/>
                        <mxPoint x="320" y="380" as="targetPoint"/>
                        <Array as="points">
                            <mxPoint x="315" y="660"/>
                            <mxPoint x="130" y="660"/>
                            <mxPoint x="130" y="380"/>
                        </Array>
                    </mxGeometry>
                </mxCell>
                <mxCell id="18" value="&lt;font color=&quot;#ffffff&quot;&gt;Falso&lt;/font&gt;" style="text;html=1;align=center;verticalAlign=middle;resizable=0;points=[];autosize=1;strokeColor=none;fillColor=none;fontColor=#000000;" vertex="1" parent="1">
                    <mxGeometry x="430" y="440" width="40" height="20" as="geometry"/>
                </mxCell>
            </root>
        </mxGraphModel>
    </diagram>
</mxfile>